<svg width="1024" height="1024" viewBox="0 0 1024 1024" xmlns="http://www.w3.org/2000/svg">
  <!-- Thermal Printer Icon - Professional Design -->

  <!-- Background Circle -->
  <circle cx="512" cy="512" r="480" fill="#2563eb" />

  <!-- Printer Body -->
  <rect x="256" y="280" width="512" height="380" rx="24" fill="#fff" />
  <rect x="280" y="304" width="464" height="332" rx="12" fill="#f1f5f9" />

  <!-- Printer Top Paper Feed -->
  <rect x="340" y="200" width="344" height="120" rx="16" fill="#fff" />
  <rect x="360" y="220" width="304" height="80" fill="#f8fafc" />

  <!-- Paper Lines -->
  <line x1="380" y1="240" x2="644" y2="240" stroke="#cbd5e1" stroke-width="4" />
  <line x1="380" y1="260" x2="580" y2="260" stroke="#cbd5e1" stroke-width="4" />
  <line x1="380" y1="280" x2="620" y2="280" stroke="#cbd5e1" stroke-width="4" />

  <!-- Control Buttons -->
  <circle cx="320" cy="380" r="16" fill="#22c55e" />
  <circle cx="704" cy="380" r="16" fill="#ef4444" />

  <!-- Display/Indicator -->
  <rect x="400" y="360" width="224" height="40" rx="8" fill="#1e293b" />
  <text x="512" y="388" font-family="system-ui" font-size="24" fill="#22c55e" text-anchor="middle" font-weight="bold">READY</text>

  <!-- Paper Output -->
  <rect x="400" y="660" width="224" height="80" rx="8" fill="#fff" />
  <line x1="420" y1="680" x2="604" y2="680" stroke="#e2e8f0" stroke-width="3" />
  <line x1="420" y1="700" x2="560" y2="700" stroke="#e2e8f0" stroke-width="3" />
  <line x1="420" y1="720" x2="604" y2="720" stroke="#e2e8f0" stroke-width="3" />

  <!-- Status LED -->
  <circle cx="512" cy="600" r="12" fill="#22c55e" opacity="0.8">
    <animate attributeName="opacity" values="0.8;0.3;0.8" dur="2s" repeatCount="indefinite" />
  </circle>
</svg>
